<svg xmlns="http://www.w3.org/2000/svg" viewBox="0 0 640 500" role="img" aria-label="陪你搞学术 - 论文纸、钢笔和一盏小台灯">
  <defs>
    <radialGradient id="halo-stat-academia-a" cx="50%" cy="50%" r="64%">
      <stop offset="0" stop-color="#b9dcff" stop-opacity=".28"/>
      <stop offset=".58" stop-color="#f7d794" stop-opacity=".10"/>
      <stop offset="1" stop-color="#bce6c8" stop-opacity="0"/>
    </radialGradient>
    <linearGradient id="warm-stat-academia-a" x1="0" y1="0" x2="1" y2="1">
      <stop offset="0" stop-color="#b9dcff"/>
      <stop offset=".58" stop-color="#f7d794"/>
      <stop offset="1" stop-color="#bce6c8"/>
    </linearGradient>
    <linearGradient id="paper-stat-academia-a" x1="0" y1="0" x2="0" y2="1">
      <stop offset="0" stop-color="#fff8df"/>
      <stop offset="1" stop-color="#e9c895"/>
    </linearGradient>
    <filter id="soft-stat-academia-a" x="-30%" y="-30%" width="160%" height="160%">
      <feDropShadow dx="0" dy="18" stdDeviation="16" flood-color="#0d0921" flood-opacity=".34"/>
      <feDropShadow dx="0" dy="0" stdDeviation="10" flood-color="#b9dcff" flood-opacity=".18"/>
    </filter>
    <filter id="glow-stat-academia-a" x="-50%" y="-50%" width="200%" height="200%">
      <feGaussianBlur stdDeviation="8" result="blur"/>
      <feMerge><feMergeNode in="blur"/><feMergeNode in="SourceGraphic"/></feMerge>
    </filter>
    <pattern id="grain-stat-academia-a" width="28" height="28" patternUnits="userSpaceOnUse">
      <path d="M3 7h1M12 14h1M22 5h1M19 23h1M8 25h1" stroke="#8a6046" stroke-opacity=".18" stroke-linecap="round"/>
    </pattern>
  </defs>
  <rect width="640" height="500" fill="url(#halo-stat-academia-a)"/>
  <g filter="url(#soft-stat-academia-a)"><path d="M92 73L94.86 81.14L103 84L94.86 86.86L92 95L89.14 86.86L81 84L89.14 81.14Z" fill="#b9dcff" opacity="0.75"/><path d="M540 89L542.34 95.66L549 98L542.34 100.34L540 107L537.66 100.34L531 98L537.66 95.66Z" fill="#bce6c8" opacity="0.65"/><path d="M560 369L563.38 378.62L573 382L563.38 385.38L560 395L556.62 385.38L547 382L556.62 378.62Z" fill="#f7d794" opacity="0.55"/><path d="M120 390L122.08 395.92L128 398L122.08 400.08L120 406L117.92 400.08L112 398L117.92 395.92Z" fill="#b9dcff" opacity="0.55"/><rect x="154" y="96" width="286" height="324" rx="18" fill="url(#paper-stat-academia-a)" opacity=".96"/><rect x="154" y="96" width="286" height="324" rx="18" fill="url(#grain-stat-academia-a)" opacity=".55"/><path d="M198 162h188M198 212h196M198 262h150M198 312h180" stroke="#f7d794" stroke-width="8" stroke-linecap="round" opacity=".22"/><path d="M420 102l70 44l-190 250l-58 22l30-54z" fill="#bce6c8" opacity=".82" stroke="#b9dcff" stroke-width="4"/></g>
</svg>