<svg xmlns="http://www.w3.org/2000/svg" viewBox="0 0 640 500" role="img" aria-label="远方的挂念 - 小火车开向亮着灯的家">
  <defs>
    <radialGradient id="halo-stat-far-c" cx="50%" cy="50%" r="64%">
      <stop offset="0" stop-color="#8ed8ff" stop-opacity=".28"/>
      <stop offset=".58" stop-color="#f6c084" stop-opacity=".10"/>
      <stop offset="1" stop-color="#d0b6ff" stop-opacity="0"/>
    </radialGradient>
    <linearGradient id="warm-stat-far-c" x1="0" y1="0" x2="1" y2="1">
      <stop offset="0" stop-color="#8ed8ff"/>
      <stop offset=".58" stop-color="#f6c084"/>
      <stop offset="1" stop-color="#d0b6ff"/>
    </linearGradient>
    <linearGradient id="paper-stat-far-c" x1="0" y1="0" x2="0" y2="1">
      <stop offset="0" stop-color="#fff8df"/>
      <stop offset="1" stop-color="#e9c895"/>
    </linearGradient>
    <filter id="soft-stat-far-c" x="-30%" y="-30%" width="160%" height="160%">
      <feDropShadow dx="0" dy="18" stdDeviation="16" flood-color="#0d0921" flood-opacity=".34"/>
      <feDropShadow dx="0" dy="0" stdDeviation="10" flood-color="#8ed8ff" flood-opacity=".18"/>
    </filter>
    <filter id="glow-stat-far-c" x="-50%" y="-50%" width="200%" height="200%">
      <feGaussianBlur stdDeviation="8" result="blur"/>
      <feMerge><feMergeNode in="blur"/><feMergeNode in="SourceGraphic"/></feMerge>
    </filter>
    <pattern id="grain-stat-far-c" width="28" height="28" patternUnits="userSpaceOnUse">
      <path d="M3 7h1M12 14h1M22 5h1M19 23h1M8 25h1" stroke="#8a6046" stroke-opacity=".18" stroke-linecap="round"/>
    </pattern>
  </defs>
  <rect width="640" height="500" fill="url(#halo-stat-far-c)"/>
  <g filter="url(#soft-stat-far-c)"><path d="M92 73L94.86 81.14L103 84L94.86 86.86L92 95L89.14 86.86L81 84L89.14 81.14Z" fill="#8ed8ff" opacity="0.75"/><path d="M540 89L542.34 95.66L549 98L542.34 100.34L540 107L537.66 100.34L531 98L537.66 95.66Z" fill="#d0b6ff" opacity="0.65"/><path d="M560 369L563.38 378.62L573 382L563.38 385.38L560 395L556.62 385.38L547 382L556.62 378.62Z" fill="#f6c084" opacity="0.55"/><path d="M120 390L122.08 395.92L128 398L122.08 400.08L120 406L117.92 400.08L112 398L117.92 395.92Z" fill="#8ed8ff" opacity="0.55"/><path d="M96 358C244 332 394 332 544 358" fill="none" stroke="#8ed8ff" stroke-width="7" stroke-linecap="round"/><rect x="150" y="226" width="260" height="92" rx="20" fill="#d0b6ff" opacity=".86" stroke="#8ed8ff" stroke-width="4"/><rect x="198" y="248" width="58" height="38" rx="8" fill="rgba(255,248,222,.72)"/><rect x="284" y="248" width="58" height="38" rx="8" fill="rgba(255,248,222,.72)"/><circle cx="210" cy="324" r="18" fill="#f6c084"/><circle cx="350" cy="324" r="18" fill="#f6c084"/><path d="M430 236l58-50l58 50v100H430z" fill="#8ed8ff" opacity=".74"/></g>
</svg>